HIERARCHY
ROOT Model
{
	OFFSET 0 0 0
	CHANNELS 6 Xposition Yposition Zposition Zrotation Xrotation Yrotation
	JOINT Model1
	{
		OFFSET 0 -2.25479 2.99384
		CHANNELS 3 Zrotation Xrotation Yrotation
		JOINT Model2
		{
			OFFSET 12.111 0 0
			CHANNELS 3 Zrotation Xrotation Yrotation
			JOINT Model3
			{
				OFFSET 11.5502 0 0
				CHANNELS 3 Zrotation Xrotation Yrotation
				JOINT Model4
				{
					OFFSET 11.781 0 0
					CHANNELS 3 Zrotation Xrotation Yrotation
					JOINT Model5
					{
						OFFSET 20.0601 0 0
						CHANNELS 3 Zrotation Xrotation Yrotation
						JOINT Model6
						{
							OFFSET 11.1962 0 0
							CHANNELS 3 Zrotation Xrotation Yrotation
							End Site
							{
								OFFSET 0 0 0
							}
						}
					}
					JOINT Model7
					{
						OFFSET 10.8223 0.417534 3.51114
						CHANNELS 3 Zrotation Xrotation Yrotation
						JOINT Model8
						{
							OFFSET -6.07944 0 0
							CHANNELS 3 Zrotation Xrotation Yrotation
							JOINT Model9
							{
								OFFSET -0.277405 10.39 -0.051239
								CHANNELS 3 Zrotation Xrotation Yrotation
								JOINT Model10
								{
									OFFSET -3.43909 -0.282043 1.86679
									CHANNELS 3 Zrotation Xrotation Yrotation
									JOINT Model11
									{
										OFFSET 13.0269 0 0
										CHANNELS 3 Zrotation Xrotation Yrotation
										JOINT Model12
										{
											OFFSET 10.8866 0 0
											CHANNELS 3 Zrotation Xrotation Yrotation
											JOINT Model13
											{
												OFFSET 16.7317 0 0
												CHANNELS 3 Zrotation Xrotation Yrotation
												JOINT Model14
												{
													OFFSET 11.8292 0 0
													CHANNELS 3 Zrotation Xrotation Yrotation
													JOINT Model15
													{
														OFFSET 4.82751 -3.73566 -0.836517
														CHANNELS 3 Zrotation Xrotation Yrotation
														JOINT Model16
														{
															OFFSET 3.75311 -0.0582886 -0.0186462
															CHANNELS 3 Zrotation Xrotation Yrotation
															JOINT Model17
															{
																OFFSET 2.88689 0.0192337 0.014801
																CHANNELS 3 Zrotation Xrotation Yrotation
																End Site
																{
																	OFFSET 0 0 0
																}
															}
														}
													}
													JOINT Model18
													{
														OFFSET 9.72197 -3.06458 0.23877
														CHANNELS 3 Zrotation Xrotation Yrotation
														JOINT Model19
														{
															OFFSET 4.61131 0 0
															CHANNELS 3 Zrotation Xrotation Yrotation
															JOINT Model20
															{
																OFFSET 2.8969 -7.62939e-006 0
																CHANNELS 3 Zrotation Xrotation Yrotation
																End Site
																{
																	OFFSET 0 0 0
																}
															}
														}
													}
													JOINT Model21
													{
														OFFSET 9.54431 -0.745064 0.588928
														CHANNELS 3 Zrotation Xrotation Yrotation
														JOINT Model22
														{
															OFFSET 5.33978 0 0
															CHANNELS 3 Zrotation Xrotation Yrotation
															JOINT Model23
															{
																OFFSET 3.03619 7.62939e-006 0
																CHANNELS 3 Zrotation Xrotation Yrotation
																End Site
																{
																	OFFSET 0 0 0
																}
															}
														}
													}
													JOINT Model24
													{
														OFFSET 9.47758 1.51286 0.485107
														CHANNELS 3 Zrotation Xrotation Yrotation
														JOINT Model25
														{
															OFFSET 4.96136 7.62939e-006 0
															CHANNELS 3 Zrotation Xrotation Yrotation
															JOINT Model26
															{
																OFFSET 2.51965 0 0
																CHANNELS 3 Zrotation Xrotation Yrotation
																End Site
																{
																	OFFSET 0 0 0
																}
															}
														}
													}
													JOINT Model27
													{
														OFFSET 9.34247 3.34117 -0.239288
														CHANNELS 3 Zrotation Xrotation Yrotation
														JOINT Model28
														{
															OFFSET 3.28259 2.28882e-005 0
															CHANNELS 3 Zrotation Xrotation Yrotation
															JOINT Model29
															{
																OFFSET 2.1292 0 0
																CHANNELS 3 Zrotation Xrotation Yrotation
																End Site
																{
																	OFFSET 0 0 0
																}
															}
														}
													}
												}
											}
										}
									}
								}
							}
						}
					}
					JOINT Model30
					{
						OFFSET 10.8223 0.4179 -3.51108
						CHANNELS 3 Zrotation Xrotation Yrotation
						JOINT Model31
						{
							OFFSET 6.07944 0 0
							CHANNELS 3 Zrotation Xrotation Yrotation
							JOINT Model32
							{
								OFFSET 0.277405 -10.39 0.051239
								CHANNELS 3 Zrotation Xrotation Yrotation
								JOINT Model33
								{
									OFFSET 3.43909 0.282043 -1.86679
									CHANNELS 3 Zrotation Xrotation Yrotation
									JOINT Model34
									{
										OFFSET -13.0269 0 0
										CHANNELS 3 Zrotation Xrotation Yrotation
										JOINT Model35
										{
											OFFSET -10.8866 0 0
											CHANNELS 3 Zrotation Xrotation Yrotation
											JOINT Model36
											{
												OFFSET -16.7317 0 0
												CHANNELS 3 Zrotation Xrotation Yrotation
												JOINT Model37
												{
													OFFSET -11.8292 0 0
													CHANNELS 3 Zrotation Xrotation Yrotation
													JOINT Model38
													{
														OFFSET -4.82751 3.73566 0.836517
														CHANNELS 3 Zrotation Xrotation Yrotation
														JOINT Model39
														{
															OFFSET -3.75311 0.0582886 0.0186462
															CHANNELS 3 Zrotation Xrotation Yrotation
															JOINT Model40
															{
																OFFSET -2.88687 -0.0192337 -0.014801
																CHANNELS 3 Zrotation Xrotation Yrotation
																End Site
																{
																	OFFSET 0 0 0
																}
															}
														}
													}
													JOINT Model41
													{
														OFFSET -9.72198 3.06459 -0.23877
														CHANNELS 3 Zrotation Xrotation Yrotation
														JOINT Model42
														{
															OFFSET -4.6113 0 0
															CHANNELS 3 Zrotation Xrotation Yrotation
															JOINT Model43
															{
																OFFSET -2.89691 0 0
																CHANNELS 3 Zrotation Xrotation Yrotation
																End Site
																{
																	OFFSET 0 0 0
																}
															}
														}
													}
													JOINT Model44
													{
														OFFSET -9.54431 0.745064 -0.588928
														CHANNELS 3 Zrotation Xrotation Yrotation
														JOINT Model45
														{
															OFFSET -5.33978 0 0
															CHANNELS 3 Zrotation Xrotation Yrotation
															JOINT Model46
															{
																OFFSET -3.03619 -1.52588e-005 0
																CHANNELS 3 Zrotation Xrotation Yrotation
																End Site
																{
																	OFFSET 0 0 0
																}
															}
														}
													}
													JOINT Model47
													{
														OFFSET -9.4776 -1.51286 -0.485107
														CHANNELS 3 Zrotation Xrotation Yrotation
														JOINT Model48
														{
															OFFSET -4.96136 -1.52588e-005 0
															CHANNELS 3 Zrotation Xrotation Yrotation
															JOINT Model49
															{
																OFFSET -2.51965 0 0
																CHANNELS 3 Zrotation Xrotation Yrotation
																End Site
																{
																	OFFSET 0 0 0
																}
															}
														}
													}
													JOINT Model50
													{
														OFFSET -9.34247 -3.34118 0.239288
														CHANNELS 3 Zrotation Xrotation Yrotation
														JOINT Model51
														{
															OFFSET -3.28259 -2.28882e-005 0
															CHANNELS 3 Zrotation Xrotation Yrotation
															JOINT Model52
															{
																OFFSET -2.12921 0 0
																CHANNELS 3 Zrotation Xrotation Yrotation
																End Site
																{
																	OFFSET 0 0 0
																}
															}
														}
													}
												}
											}
										}
									}
								}
							}
						}
					}
				}
			}
		}
	}
	JOINT Model53
	{
		OFFSET 4.38025 -2.14632 -1.11517
		CHANNELS 3 Zrotation Xrotation Yrotation
		JOINT Model54
		{
			OFFSET 0 0 4.94998
			CHANNELS 3 Zrotation Xrotation Yrotation
			JOINT Model55
			{
				OFFSET 18.5642 0 0
				CHANNELS 3 Zrotation Xrotation Yrotation
				JOINT Model56
				{
					OFFSET 21.2884 0 0
					CHANNELS 3 Zrotation Xrotation Yrotation
					JOINT Model57
					{
						OFFSET 30.261 0 0
						CHANNELS 3 Zrotation Xrotation Yrotation
						JOINT Model58
						{
							OFFSET 11.7259 0 0
							CHANNELS 3 Zrotation Xrotation Yrotation
							JOINT Model59
							{
								OFFSET 10.682 0 0
								CHANNELS 3 Zrotation Xrotation Yrotation
								End Site
								{
									OFFSET 0 0 0
								}
							}
						}
					}
				}
			}
		}
	}
	JOINT Model60
	{
		OFFSET -4.38025 -2.14632 -1.11517
		CHANNELS 3 Zrotation Xrotation Yrotation
		JOINT Model61
		{
			OFFSET 0 0 -4.94998
			CHANNELS 3 Zrotation Xrotation Yrotation
			JOINT Model62
			{
				OFFSET -18.5642 0 0
				CHANNELS 3 Zrotation Xrotation Yrotation
				JOINT Model63
				{
					OFFSET -21.2884 0 0
					CHANNELS 3 Zrotation Xrotation Yrotation
					JOINT Model64
					{
						OFFSET -30.261 0 0
						CHANNELS 3 Zrotation Xrotation Yrotation
						JOINT Model65
						{
							OFFSET -11.7259 0 0
							CHANNELS 3 Zrotation Xrotation Yrotation
							JOINT Model66
							{
								OFFSET -10.682 0 0
								CHANNELS 3 Zrotation Xrotation Yrotation
								End Site
								{
									OFFSET 0 0 0
								}
							}
						}
					}
				}
			}
		}
	}
}
MOTION
Frames: 4
Frame Time: 0.033333
-662.524 174.14 -733.545 95.1204 -53.7662 94.7835 -180 4.29621e-031 -90 0.578256 0.252746 -0.231193 1.15754 0.502708 -0.464932 1.15754 0.503145 -0.464941 -0.169785 0.14123 -1.26953 13.6968 -0.0375383 2.11119 120.092 75.5343 58.4939 13.794 1.55021 -1.69384 -167.277 84.4999 48.8109 167.738 -9.91838 -31.0666 2.78022e-006 16.3116 3.14535e-005 0.0150644 -2.24156 0.302777 -1.26483e-007 -3.29825 -3.78237e-007 -0.753206 -0.0295438 4.49231 -72.0648 39.0385 39.3397 33.3638 2.10362 14.835 0.588947 0.308273 6.35287 -99.6409 81.413 100.35 -0.0181409 2.78113e-005 -0.117315 -0.124139 0.00241116 -0.799296 -79.8382 79.5773 80.5374 -0.000225783 -0.000220891 2.2258e-005 -0.000956235 0.000122938 -2.72346e-005 -66.7416 80.4058 67.2171 -0.000437137 1.59776e-005 -2.72576e-005 -0.00013661 -0.000109248 -5.45559e-005 -6.42159 81.2158 8.01779 -0.000218566 1.69379e-005 0.000212203 0.000901584 -0.000184761 -0.000218481 -59.9282 75.5373 58.5147 13.9659 6.27149 -0.860307 -167.277 84.4999 48.8109 165.583 -19.6309 -26.4983 7.14932e-006 -0.367806 2.9089e-005 -1.56462 9.42864 -0.112092 -5.6368e-006 14.1705 2.42523e-006 1.21278 -0.0266867 -2.52112 -72.0648 39.0385 39.3397 33.3638 2.10361 14.835 0.588946 0.308273 6.35287 -99.6409 81.413 100.35 -0.0181409 3.00728e-005 -0.117315 -0.124139 0.00241112 -0.799296 -79.8382 79.5773 80.5374 -0.000260653 -0.000218573 2.35184e-005 -0.000956235 0.000122987 -2.73912e-005 -66.7416 80.4058 67.2171 -0.000437141 1.48756e-005 -2.73732e-005 -0.000136615 -0.000109291 -5.47126e-005 -6.42159 81.2158 8.01779 -0.00021858 1.95795e-005 0.000212248 0.000901565 -0.000191244 -0.000218633 0.000811311 0.56661 89.91 -14.5432 -4.13245 -9.02133 -1.31613e-007 -0.354887 -1.24451e-009 36.5078 -2.09191 -1.55415 -9.10956e-008 -3.20798 -9.73899e-008 -68.3523 -5.84136 2.19194 -35.4947 5.84622e-007 3.388e-007 -180 -0.566579 -90.09 -15.1609 -3.99744 -5.63624 -8.39734e-007 -2.37079 -2.90589e-008 37.2234 -3.01893 -1.80381 2.82546e-007 -4.60112 -2.8091e-007 -68.3235 -4.39347 1.42008 -35.4947 -3.6301e-007 -2.50278e-007 
-662.522 174.159 -733.5 95.1788 -53.7273 94.8606 -180 4.29621e-031 -90 0.585569 0.242475 -0.230704 1.17212 0.482141 -0.46388 1.17212 0.482578 -0.463889 0.281128 0.197386 -1.08903 13.1875 0.0396325 1.83627 120.092 75.5343 58.4939 14.0318 1.80674 -1.68858 -167.277 84.4999 48.8109 167.715 -10.525 -31.6366 3.19714e-006 15.58 3.13389e-005 0.0649047 -1.7813 1.55558 -1.21929e-007 -2.60909 -3.78003e-007 -0.335898 -0.0109365 3.72952 -72.0648 39.0385 39.3397 33.3638 2.10362 14.835 0.588947 0.308273 6.35287 -99.6409 81.413 100.35 -0.0181409 2.78113e-005 -0.117315 -0.124139 0.00241116 -0.799296 -79.8382 79.5773 80.5374 -0.000225783 -0.000220891 2.2258e-005 -0.000956235 0.000122938 -2.72346e-005 -66.7416 80.4058 67.2171 -0.000437137 1.59776e-005 -2.72576e-005 -0.00013661 -0.000109248 -5.45559e-005 -6.42159 81.2158 8.01779 -0.000218566 1.69379e-005 0.000212203 0.000901584 -0.000184761 -0.000218481 -59.9282 75.5373 58.5147 13.7811 6.34694 -0.806485 -167.277 84.4999 48.8109 165.627 -19.6703 -26.635 7.15032e-006 -0.369792 2.9089e-005 -1.55973 9.56055 -0.114479 -5.64545e-006 14.3684 2.42737e-006 0.531882 -0.0108945 -2.34693 -72.0648 39.0385 39.3397 33.3638 2.10361 14.835 0.588946 0.308273 6.35287 -99.6409 81.413 100.35 -0.0181409 3.00728e-005 -0.117315 -0.124139 0.00241112 -0.799296 -79.8382 79.5773 80.5374 -0.000260653 -0.000218573 2.35184e-005 -0.000956235 0.000122987 -2.73912e-005 -66.7416 80.4058 67.2171 -0.000437141 1.48756e-005 -2.73732e-005 -0.000136615 -0.000109291 -5.47126e-005 -6.42159 81.2158 8.01779 -0.00021858 1.95795e-005 0.000212248 0.000901565 -0.000191244 -0.000218633 0.000811311 0.56661 89.91 -14.4622 -4.02054 -8.95139 -1.3161e-007 -0.220265 -1.2445e-009 36.4433 -2.20582 -1.55785 -9.13864e-008 -3.3788 -9.74066e-008 -68.2997 -5.90454 2.23101 -35.4947 5.79828e-007 3.32908e-007 -180 -0.566579 -90.09 -14.997 -3.95065 -5.66729 -8.39681e-007 -2.26673 -2.90568e-008 37.0976 -3.10981 -1.62873 2.81878e-007 -4.73683 -2.80965e-007 -68.2837 -4.41866 1.4369 -35.4947 -3.34767e-007 -2.37514e-007 
-662.517 174.159 -733.468 95.2393 -53.7371 94.9238 -180 4.29621e-031 -90 0.595304 0.236444 -0.228069 1.19155 0.470066 -0.458589 1.19155 0.470503 -0.458598 0.452123 0.25431 -1.12255 13.0042 0.0875046 1.85217 120.092 75.5343 58.4939 14.0385 1.51286 -1.74355 -167.277 84.4999 48.8109 167.275 -10.4383 -31.7497 3.24255e-006 15.5 3.13268e-005 0.0720004 -1.62424 1.84677 -1.20376e-007 -2.3739 -3.77935e-007 -0.374921 -0.0117641 3.59431 -72.0648 39.0385 39.3397 33.3638 2.10362 14.835 0.588947 0.308273 6.35287 -99.6409 81.413 100.35 -0.0181409 2.78113e-005 -0.117315 -0.124139 0.00241116 -0.799296 -79.8382 79.5773 80.5374 -0.000225783 -0.000220891 2.2258e-005 -0.000956235 0.000122938 -2.72346e-005 -66.7416 80.4058 67.2171 -0.000437137 1.59776e-005 -2.72576e-005 -0.00013661 -0.000109248 -5.45559e-005 -6.42159 81.2158 8.01779 -0.000218566 1.69379e-005 0.000212203 0.000901584 -0.000184761 -0.000218481 -59.9282 75.5373 58.5147 13.7728 6.31866 -0.809859 -167.277 84.4999 48.8109 165.601 -19.6394 -26.5132 7.14948e-006 -0.368137 2.9089e-005 -1.556 9.65895 -0.116315 -5.65192e-006 14.5161 2.42898e-006 0.34185 -0.00726955 -2.43661 -72.0648 39.0385 39.3397 33.3638 2.10361 14.835 0.588946 0.308273 6.35287 -99.6409 81.413 100.35 -0.0181409 3.00728e-005 -0.117315 -0.124139 0.00241112 -0.799296 -79.8382 79.5773 80.5374 -0.000260653 -0.000218573 2.35184e-005 -0.000956235 0.000122987 -2.73912e-005 -66.7416 80.4058 67.2171 -0.000437141 1.48756e-005 -2.73732e-005 -0.000136615 -0.000109291 -5.47126e-005 -6.42159 81.2158 8.01779 -0.00021858 1.95795e-005 0.000212248 0.000901565 -0.000191244 -0.000218633 0.000811311 0.56661 89.91 -14.4168 -4.02735 -8.99386 -1.31609e-007 -0.1969 -1.24449e-009 36.4436 -2.21917 -1.51403 -9.14204e-008 -3.39876 -9.74086e-008 -68.3052 -5.90787 2.23225 -35.4947 5.68724e-007 3.37495e-007 -180 -0.566579 -90.09 -14.9219 -3.94184 -5.67477 -8.39669e-007 -2.24225 -2.90563e-008 37.0874 -3.12284 -1.55887 2.81783e-007 -4.7562 -2.80973e-007 -68.3075 -4.40512 1.42766 -35.4947 -2.90678e-007 -2.23158e-007 
-662.497 174.148 -733.444 95.3465 -53.7593 94.9827 -180 4.29621e-031 -90 0.608517 0.233191 -0.230904 1.21798 0.463478 -0.464278 1.21798 0.463915 -0.464287 0.482666 0.336603 -1.36779 12.999 0.127691 2.13053 120.092 75.5343 58.4939 13.9236 1.36888 -1.74996 -167.277 84.4999 48.8109 167.147 -10.1974 -31.5348 3.1169e-006 15.7212 3.13606e-005 0.0549822 -1.67233 1.38073 -1.20847e-007 -2.44531 -3.77955e-007 -0.397446 -0.0136111 3.92269 -72.0648 39.0385 39.3397 33.3638 2.10362 14.835 0.588947 0.308273 6.35287 -99.6409 81.413 100.35 -0.0181409 2.78113e-005 -0.117315 -0.124139 0.00241116 -0.799296 -79.8382 79.5773 80.5374 -0.000225783 -0.000220891 2.2258e-005 -0.000956235 0.000122938 -2.72346e-005 -66.7416 80.4058 67.2171 -0.000437137 1.59776e-005 -2.72576e-005 -0.00013661 -0.000109248 -5.45559e-005 -6.42159 81.2158 8.01779 -0.000218566 1.69379e-005 0.000212203 0.000901584 -0.000184761 -0.000218481 -59.9282 75.5373 58.5147 13.8132 6.14115 -0.851113 -167.277 84.4999 48.8109 165.465 -19.5547 -26.2866 7.14754e-006 -0.364308 2.9089e-005 -1.55062 9.79844 -0.118997 -5.66109e-006 14.7255 2.43129e-006 0.533323 -0.0125238 -2.69051 -72.0648 39.0385 39.3397 33.3638 2.10361 14.835 0.588946 0.308273 6.35287 -99.6409 81.413 100.35 -0.0181409 3.00728e-005 -0.117315 -0.124139 0.00241112 -0.799296 -79.8382 79.5773 80.5374 -0.000260653 -0.000218573 2.35184e-005 -0.000956235 0.000122987 -2.73912e-005 -66.7416 80.4058 67.2171 -0.000437141 1.48756e-005 -2.73732e-005 -0.000136615 -0.000109291 -5.47126e-005 -6.42159 81.2158 8.01779 -0.00021858 1.95795e-005 0.000212248 0.000901565 -0.000191244 -0.000218633 0.000811311 0.56661 89.91 -14.3528 -4.10385 -9.03168 -1.31611e-007 -0.278682 -1.2445e-009 36.4682 -2.12887 -1.47052 -9.11897e-008 -3.26324 -9.73952e-008 -68.363 -5.82705 2.18323 -35.4947 5.51689e-007 3.51932e-007 -180 -0.566579 -90.09 -14.8797 -3.98299 -5.73825 -8.39678e-007 -2.26022 -2.90566e-008 37.1507 -3.0694 -1.5274 2.82177e-007 -4.67605 -2.8094e-007 -68.3716 -4.35764 1.39691 -35.4947 -2.31606e-007 -2.07296e-007 
